# xmcd
#
# Track frame offsets:
#	183
#	16153
#	34148
#	47908
#	66820
#	91270
#	107005
#	121053
#	135510
#	152128
#
# Disc length: 2309 seconds
#
# Revision: 0
# Processed by: cddbd v1.4b42PL1 Copyright (c) Steve Scherf et al.
# Submitted via: EasyCDDAExtractor 4.5.0.2
#
DISCID=7809030a
DTITLE=Toms Tivoli - Snön Faller Uppåt
DYEAR=1992
DGENRE=Pop
TTITLE0=Vi Hör Ihop
TTITLE1=Klockorna Slår
TTITLE2=Snön Faller Uppåt
TTITLE3=I Min Roddbåt
TTITLE4=Under Mitt Skinn
TTITLE5=Kom Till Mig
TTITLE6=Om Du Frågar Mig
TTITLE7=Då Går Det Som Det Går
TTITLE8=Vi Måste Hjälpa Dem
TTITLE9=Jag Vill Hem
EXTD=
EXTT0=
EXTT1=
EXTT2=
EXTT3=
EXTT4=
EXTT5=
EXTT6=
EXTT7=
EXTT8=
EXTT9=
PLAYORDER=
